<svg xmlns="http://www.w3.org/2000/svg" width="142" height="57" fill="none" viewBox="0 0 142 57">
  <path fill="#0B0B0B" d="M7.032 5.72c1.648 0 2.976.256 3.984.768 1.008.496 1.744 1.352 2.208 2.568.464 1.2.696 2.856.696 4.968 0 2.272-.232 4.064-.696 5.376-.464 1.312-1.2 2.24-2.208 2.784-1.008.544-2.336.816-3.984.816H1.32V9.008L0 5.72h7.032Zm-.288 13.44c.512 0 .92-.152 1.224-.456.32-.32.552-.848.696-1.584.144-.752.216-1.784.216-3.096 0-1.2-.064-2.12-.192-2.76-.128-.656-.344-1.104-.648-1.344-.304-.24-.736-.36-1.296-.36H6v9.6h.744Zm7.46-13.44h11.495l-.72 3.84h-4.776v2.64h4.488l-.72 3.84h-3.768v3.12h5.664l-.72 3.84h-9.624V9.008l-1.32-3.288Zm17.38 14.952L31.128 23h-5.016l3.456-15.12-.552-2.352h7.248L40.032 23h-4.968l-.456-2.328h-3.024Zm.48-3.72h2.04l-1.008-6.288-1.032 6.288ZM46.946 5.72c1.648 0 2.976.256 3.984.768 1.008.496 1.744 1.352 2.208 2.568.464 1.2.696 2.856.696 4.968 0 2.272-.232 4.064-.696 5.376-.464 1.312-1.2 2.24-2.208 2.784-1.008.544-2.336.816-3.984.816h-5.712V9.008l-1.32-3.288h7.032Zm-.288 13.44c.512 0 .92-.152 1.224-.456.32-.32.552-.848.696-1.584.144-.752.216-1.784.216-3.096 0-1.2-.064-2.12-.192-2.76-.128-.656-.344-1.104-.648-1.344-.304-.24-.736-.36-1.296-.36h-.744v9.6h.744Zm8.727-13.44h4.68v13.2h5.304L64.625 23h-9.24V5.72Zm11.18 0h4.68V23h-4.68V5.72Zm12.051 0L82 15.584V5.72h4.56V23h-5.616l-3.072-8.976V23h-4.56V8.192l-.984-2.472h6.288Zm9.017 0h11.496l-.72 3.84h-4.776v2.64h4.488l-.72 3.84h-3.768v3.12h5.664l-.72 3.84h-9.624V9.008l-1.32-3.288Z"/>
  <path fill="#1862DA" d="M36.376 26.96c2.197 0 3.968.341 5.312 1.024 1.344.661 2.325 1.803 2.944 3.424.619 1.6.928 3.808.928 6.624 0 3.03-.31 5.419-.928 7.168-.619 1.75-1.6 2.987-2.944 3.712-1.344.725-3.115 1.088-5.312 1.088H28.76V31.344L27 26.96h9.376Zm-.384 17.92c.683 0 1.227-.203 1.632-.608.427-.427.736-1.13.928-2.112.192-1.003.288-2.379.288-4.128 0-1.6-.085-2.827-.256-3.68-.17-.875-.459-1.472-.864-1.792-.405-.32-.981-.48-1.728-.48H35v12.8h.992Zm16.683 2.016L52.067 50h-6.688l4.608-20.16-.736-3.136h9.664L63.939 50h-6.624l-.608-3.104h-4.032Zm.64-4.96h2.72l-1.344-8.384-1.376 8.384Zm17.979 2.848c.81 0 1.418-.117 1.824-.352.405-.235.608-.619.608-1.152 0-.363-.096-.65-.288-.864-.192-.213-.534-.427-1.024-.64l-3.392-1.568c-1.259-.576-2.23-1.344-2.912-2.304-.683-.96-1.024-2.357-1.024-4.192 0-2.347.608-4.096 1.824-5.248 1.237-1.173 3.274-1.77 6.112-1.792 1.173 0 2.24.053 3.2.16.96.107 1.728.224 2.304.352l.864.16-.64 5.152-.8-.096a28.848 28.848 0 0 0-1.92-.16 26.982 26.982 0 0 0-2.24-.096c-.768 0-1.355.117-1.76.352-.384.213-.576.63-.576 1.248 0 .341.15.63.448.864.298.213.714.437 1.248.672l2.72 1.184c1.45.64 2.506 1.44 3.168 2.4.661.939.992 2.283.992 4.032 0 2.368-.619 4.192-1.856 5.472-1.238 1.28-3.275 1.93-6.112 1.952-1.408 0-2.72-.096-3.936-.288a31.484 31.484 0 0 1-3.232-.608l.64-5.152.768.128c.533.085 1.237.17 2.112.256.874.085 1.834.128 2.88.128ZM82.284 50V26.96h6.24v8.864h3.2V26.96h6.24V50h-6.24v-9.056h-3.2V50h-6.24Z"/>
  <g clip-path="url(#a)">
    <path fill="#012A6D" d="M130.188 8a3.938 3.938 0 1 1-.001 7.877A3.938 3.938 0 0 1 130.188 8Zm-8.925 13.125c-1.157 0-2.256.46-3.077 1.271l-1.895 1.895a2.629 2.629 0 0 1-3.716 0 2.63 2.63 0 0 1 0-3.716l1.895-1.895a9.635 9.635 0 0 1 6.793-2.805c.959 0 1.911.14 2.821.427l3.995 1.23a10.494 10.494 0 0 1 6.604 5.997l.517 1.23a2.628 2.628 0 0 0 2.42 1.616h1.755A2.622 2.622 0 0 1 142 29a2.622 2.622 0 0 1-2.625 2.625h-1.747a7.867 7.867 0 0 1-7.268-4.848l-.419-1.009-2.543 6.76 4.652 2.903a3.939 3.939 0 0 1 1.698 4.422l-2.346 8.244a2.635 2.635 0 0 1-3.249 1.805 2.632 2.632 0 0 1-1.805-3.249l2.084-7.284-7.071-4.422a5.253 5.253 0 0 1-2.198-6.111l2.559-7.686a4.318 4.318 0 0 0-.459-.025Zm-4.406 12.362a7.867 7.867 0 0 0 3.109 3.683l.78.492-.944 2.125a3.942 3.942 0 0 1-3.601 2.338H110.5a2.622 2.622 0 0 1-2.625-2.625 2.622 2.622 0 0 1 2.625-2.625h4.856l1.501-3.388ZM101.312 15.86h10.5c.722 0 1.313.59 1.313 1.312 0 .722-.591 1.313-1.313 1.313h-10.5c-.721 0-1.312-.591-1.312-1.313s.591-1.312 1.312-1.312ZM100 22.42c0-.722.591-1.312 1.312-1.312h5.25c.722 0 1.313.59 1.313 1.312 0 .722-.591 1.313-1.313 1.313h-5.25A1.317 1.317 0 0 1 100 22.42Zm1.312 3.938h10.5c.722 0 1.313.59 1.313 1.312 0 .722-.591 1.313-1.313 1.313h-10.5c-.721 0-1.312-.591-1.312-1.313s.591-1.312 1.312-1.312Z"/>
  </g>
  <defs>
    <clipPath id="a">
      <path fill="#fff" d="M100 8h42v42h-42z"/>
    </clipPath>
  </defs>
</svg>
