<svg xmlns="http://www.w3.org/2000/svg" width="350" height="350" fill="none" viewBox="0 0 350 350">
  <path fill="#272727" fill-rule="evenodd" d="M176.5 350c95.821 0 173.5-77.679 173.5-173.5S272.321 3 176.5 3 3 80.679 3 176.5 80.679 350 176.5 350Zm0-25c82.014 0 148.5-66.486 148.5-148.5S258.514 28 176.5 28 28 94.486 28 176.5 94.486 325 176.5 325Z" clip-rule="evenodd"/>
  <path fill="#7E8184" fill-rule="evenodd" d="M176.5 350c95.821 0 173.5-77.679 173.5-173.5S272.321 3 176.5 3 3 80.679 3 176.5 80.679 350 176.5 350Zm0-25c82.014 0 148.5-66.486 148.5-148.5S258.514 28 176.5 28 28 94.486 28 176.5 94.486 325 176.5 325Z" clip-rule="evenodd"/>
  <circle cx="173" cy="174" r="156" fill="#fff"/>
  <path fill="#5E6469" d="M16.5 174H174v155l-69.5-9.5-47-31-31.5-52-9.5-62.5Zm.5 0h157V20l-69.279 9.439-46.851 30.8-31.4 51.664L17 174Z"/>
  <path fill="#303A42" d="M41.75 262.5 174 174v155l-69.5-9.5-47-31-15.75-26Z"/>
  <path fill="#192329" d="m81 304 93-130v155l-69.5-9.5L81 304Z"/>
  <path fill="#272727" fill-rule="evenodd" d="M173.5 347c95.821 0 173.5-77.679 173.5-173.5S269.321 0 173.5 0 0 77.679 0 173.5 77.679 347 173.5 347Zm0-25c82.014 0 148.5-66.486 148.5-148.5S255.514 25 173.5 25 25 91.486 25 173.5 91.486 322 173.5 322Z" clip-rule="evenodd"/>
  <path fill="#272727" fill-rule="evenodd" d="M173.5 347c95.821 0 173.5-77.679 173.5-173.5S269.321 0 173.5 0 0 77.679 0 173.5 77.679 347 173.5 347Zm0-25c82.014 0 148.5-66.486 148.5-148.5S255.514 25 173.5 25 25 91.486 25 173.5 91.486 322 173.5 322Z" clip-rule="evenodd"/>
  <rect width="101.656" height="21.845" x="175.247" y="168" fill="#8C8C8C" rx="10.923" transform="rotate(27.974 175.247 168)"/>
  <rect width="101.656" height="21.845" x="175.247" y="165" fill="#1862DA" rx="10.923" transform="rotate(27.974 175.247 165)"/>
  <rect width="146.741" height="21.845" x="166" y="183.741" fill="#989898" rx="10.923" transform="rotate(-90 166 183.741)"/>
  <rect width="146.741" height="21.845" x="163" y="183.741" fill="#272727" rx="10.923" transform="rotate(-90 163 183.741)"/>
  <circle cx="174" cy="174" r="19" fill="#123E85"/>
  <rect width="30" height="16" x="181" y="44" fill="#081318" rx="8" transform="rotate(90 181 44)"/>
  <rect width="30" height="16" x="242.428" y="65.01" fill="#081318" rx="8" transform="rotate(120 242.428 65.01)"/>
  <rect width="30" height="16" x="292.981" y="117.856" fill="#081318" rx="8" transform="rotate(150 292.981 117.856)"/>
  <rect width="30" height="16" x="306" y="185" fill="#081318" rx="8" transform="rotate(-180 306 185)"/>
  <rect width="30" height="16" x="284.981" y="249.856" fill="#081318" rx="8" transform="rotate(-150 284.981 249.856)"/>
  <rect width="30" height="16" x="230" y="293.981" fill="#081318" rx="8" transform="rotate(-120 230 293.981)"/>
  <rect width="30" height="16" x="165" y="304" fill="#081318" rx="8" transform="rotate(-90 165 304)"/>
  <rect width="30" height="16" x="102" y="282.981" fill="#081318" rx="8" transform="rotate(-60 102 282.981)"/>
  <rect width="30" height="16" x="56" y="234" fill="#081318" rx="8" transform="rotate(-30 56 234)"/>
  <rect width="30" height="16" x="41" y="168" fill="#081318" rx="8"/>
  <rect width="30" height="16" x="64" y="104" fill="#081318" rx="8" transform="rotate(30 64 104)"/>
  <rect width="30" height="16" x="116.856" y="57" fill="#081318" rx="8" transform="rotate(60 116.856 57)"/>
  <path fill="#fff" d="M178.64 94.516c0 .824-.128 1.488-.384 1.992-.248.504-.676.872-1.284 1.104-.6.232-1.428.348-2.484.348-1.136 0-2.032-.116-2.688-.348-.656-.232-1.12-.6-1.392-1.104-.272-.504-.408-1.168-.408-1.992V91.66h6.996l1.644-.66v3.516Zm-6.72-.144c0 .256.076.46.228.612.16.16.424.276.792.348.376.072.892.108 1.548.108.6 0 1.06-.032 1.38-.096.328-.064.552-.172.672-.324.12-.152.18-.368.18-.648V94h-4.8v.372Zm6.72 3.73v5.748l-1.92-.36v-2.388h-1.32v2.244l-1.92-.36v-1.884h-1.56v2.832l-1.92-.36v-4.812h6.996l1.644-.66Zm-7.476 8.69-1.164-.228v-2.508l7.56 1.728 1.176-.276v3.624L170 111.016v-2.484l1.164-.228v-1.512Zm1.86.24v1.02l3.144-.504-3.144-.516Zm5.616 7.441c0 .824-.128 1.488-.384 1.992-.248.504-.676.872-1.284 1.104-.6.232-1.428.348-2.484.348-1.136 0-2.032-.116-2.688-.348-.656-.232-1.12-.6-1.392-1.104-.272-.504-.408-1.168-.408-1.992v-2.856h6.996l1.644-.66v3.516Zm-6.72-.144c0 .256.076.46.228.612.16.16.424.276.792.348.376.072.892.108 1.548.108.6 0 1.06-.032 1.38-.096.328-.064.552-.172.672-.324.12-.152.18-.368.18-.648v-.372h-4.8v.372Zm6.72 4.363v2.34h-6.6v2.652l-2.04-.372v-4.62h8.64Zm0 5.59v2.34H170v-2.34h8.64Zm0 6.026L173.708 132h4.932v2.28H170v-2.808l4.488-1.536H170v-2.28h7.404l1.236-.492v3.144Zm0 4.508v5.748l-1.92-.36v-2.388h-1.32v2.244l-1.92-.36v-1.884h-1.56v2.832l-1.92-.36v-4.812h6.996l1.644-.66Zm29.225 52.986c.714.412 1.225.855 1.533 1.328.313.467.417 1.022.314 1.664-.099.636-.412 1.411-.94 2.326-.568.983-1.117 1.701-1.646 2.153-.529.453-1.079.67-1.652.654-.572-.017-1.215-.231-1.929-.643l-2.473-1.428 3.498-6.058.25-1.754 3.045 1.758Zm-3.485 5.748c.222.128.437.164.644.108.219-.059.451-.229.698-.512.25-.289.539-.718.867-1.286.3-.52.502-.934.607-1.244.109-.316.127-.564.055-.744-.071-.179-.228-.339-.471-.479l-.322-.186-2.4 4.157.322.186Zm5.04 3.782-.779.894-2.172-1.254 5.276-5.683.349-1.156 3.139 1.812-2.737 8.507-2.151-1.242.385-1.122-1.31-.756Zm1.138-1.491.883.51 1.136-2.974-2.019 2.464Zm5.305 4.296c.263.152.483.228.658.228.176 0 .314-.087.414-.26a.468.468 0 0 0 .068-.335c-.022-.105-.093-.238-.212-.399l-.808-1.146c-.301-.423-.472-.854-.514-1.294-.041-.44.11-.958.454-1.553.44-.762.965-1.217 1.576-1.363.622-.149 1.396.039 2.321.564.381.22.717.438 1.009.652.292.215.519.397.682.547l.251.214-1.174 1.553-.242-.181a10.255 10.255 0 0 0-.593-.412 10.098 10.098 0 0 0-.71-.452c-.249-.144-.462-.215-.637-.215-.165-.003-.305.096-.421.297a.4.4 0 0 0-.017.365c.057.125.15.276.28.452l.661.894c.351.48.544.938.579 1.374.039.429-.106.927-.434 1.495-.444.769-.987 1.246-1.629 1.429-.642.184-1.425.013-2.351-.512a9.533 9.533 0 0 1-1.224-.831 11.784 11.784 0 0 1-.936-.804l1.174-1.553.226.186c.157.127.369.287.638.479.268.192.571.385.911.581Zm2.591 3.755 4.32-7.482 2.026 1.17-1.662 2.878 1.04.6 1.662-2.878 2.026 1.17-4.32 7.482-2.026-1.17 1.698-2.941-1.04-.6-1.698 2.941-2.026-1.17Z"/>
  <g clip-path="url(#a)">
    <path fill="#071C3E" d="M177.656 164a1.782 1.782 0 1 1 0 3.563 1.782 1.782 0 0 1 0-3.563Zm-4.037 5.938c-.523 0-1.021.207-1.392.575l-.857.857a1.189 1.189 0 0 1-1.681-1.681l.857-.857a4.356 4.356 0 0 1 4.349-1.077l1.808.557a4.748 4.748 0 0 1 2.987 2.713l.234.556c.185.442.616.731 1.094.731h.794a1.187 1.187 0 1 1 0 2.376h-.79a3.56 3.56 0 0 1-3.288-2.194l-.189-.456-1.15 3.058 2.104 1.313c.671.42.987 1.236.768 2.001l-1.062 3.729a1.188 1.188 0 0 1-2.285-.653l.942-3.295-3.199-2.001a2.376 2.376 0 0 1-.994-2.764l1.158-3.477a1.824 1.824 0 0 0-.208-.011Zm-1.993 5.592a3.558 3.558 0 0 0 1.406 1.666l.353.223-.427.961a1.784 1.784 0 0 1-1.629 1.058h-2.579a1.187 1.187 0 1 1 0-2.376h2.197l.679-1.532Zm-7.032-7.975h4.75c.326 0 .594.267.594.594a.597.597 0 0 1-.594.594h-4.75a.596.596 0 0 1-.594-.594c0-.327.267-.594.594-.594Zm-.594 2.969c0-.327.267-.594.594-.594h2.375a.595.595 0 0 1 0 1.188h-2.375a.596.596 0 0 1-.594-.594Zm.594 1.781h4.75c.326 0 .594.267.594.594a.597.597 0 0 1-.594.594h-4.75a.596.596 0 0 1-.594-.594c0-.327.267-.594.594-.594Z"/>
  </g>
  <defs>
    <clipPath id="a">
      <path fill="#fff" d="M164 164h19v19h-19z"/>
    </clipPath>
  </defs>
</svg>
